<svg width="175" height="117" viewBox="0 0 175 117" fill="none" xmlns="http://www.w3.org/2000/svg">
<g filter="url(#filter0_ddi_12_5)">
<rect x="11.5" y="11.5" width="152" height="94" rx="15.5" stroke="#F5ECFF" shape-rendering="crispEdges"/>
</g>
<g filter="url(#filter1_d_12_5)">
<path d="M55.6364 51H53.4545C53.2273 49.8182 52.8011 48.6761 52.1761 47.5739C51.5511 46.4602 50.7443 45.4602 49.7557 44.5739C48.7784 43.6761 47.642 42.9659 46.3466 42.4432C45.0511 41.9205 43.6193 41.6591 42.0511 41.6591C39.7557 41.6591 37.642 42.2727 35.7102 43.5C33.7898 44.7159 32.25 46.5057 31.0909 48.8693C29.9432 51.233 29.3693 54.125 29.3693 57.5455C29.3693 60.9886 29.9432 63.892 31.0909 66.2557C32.25 68.6193 33.7898 70.4091 35.7102 71.625C37.642 72.8295 39.7557 73.4318 42.0511 73.4318C43.6193 73.4318 45.0511 73.1761 46.3466 72.6648C47.642 72.142 48.7784 71.4375 49.7557 70.5511C50.7443 69.6534 51.5511 68.6477 52.1761 67.5341C52.8011 66.4205 53.2273 65.2727 53.4545 64.0909H55.6364C55.3864 65.5 54.9034 66.8807 54.1875 68.233C53.483 69.5852 52.5511 70.8125 51.392 71.9148C50.2443 73.0057 48.8864 73.875 47.3182 74.5227C45.7614 75.1591 44.0057 75.4773 42.0511 75.4773C39.142 75.4773 36.5795 74.7386 34.3636 73.2614C32.1477 71.7727 30.4091 69.6818 29.1477 66.9886C27.8977 64.2955 27.2727 61.1477 27.2727 57.5455C27.2727 53.9432 27.8977 50.7955 29.1477 48.1023C30.4091 45.4091 32.1477 43.3239 34.3636 41.8466C36.5795 40.358 39.142 39.6136 42.0511 39.6136C44.0057 39.6136 45.7614 39.9375 47.3182 40.5852C48.8864 41.2216 50.2443 42.0852 51.392 43.1761C52.5511 44.2557 53.483 45.4716 54.1875 46.8239C54.9034 48.1761 55.3864 49.5682 55.6364 51ZM63.8267 75V40.0909H65.9574V56.5398H86.9915V40.0909H89.1222V75H86.9915V58.517H65.9574V75H63.8267ZM97.8707 75H95.6207L108.217 40.0909H110.672L123.268 75H121.018L109.53 42.8352H109.359L97.8707 75ZM101.058 61.858H117.831V63.8352H101.058V61.858ZM123.384 42.0682V40.0909H147.844V42.0682H136.679V75H134.548V42.0682H123.384Z" fill="#6100FF"/>
<path d="M55.6364 51V52H56.8261L56.6215 50.828L55.6364 51ZM53.4545 51L52.4725 51.1888L52.6285 52H53.4545V51ZM52.1761 47.5739L51.3041 48.0633L51.3062 48.0671L52.1761 47.5739ZM49.7557 44.5739L49.0791 45.3104L49.0881 45.3184L49.7557 44.5739ZM46.3466 42.4432L46.7208 41.5158L46.7208 41.5158L46.3466 42.4432ZM35.7102 43.5L36.2452 44.3449L36.2465 44.3441L35.7102 43.5ZM31.0909 48.8693L30.193 48.429L30.1914 48.4325L31.0909 48.8693ZM31.0909 66.2557L30.1913 66.6925L30.1931 66.696L31.0909 66.2557ZM35.7102 71.625L35.1753 72.4699L35.1811 72.4736L35.7102 71.625ZM46.3466 72.6648L46.7138 73.595L46.7208 73.5921L46.3466 72.6648ZM49.7557 70.5511L50.4275 71.2919L50.4279 71.2915L49.7557 70.5511ZM53.4545 64.0909V63.0909H52.6285L52.4725 63.9021L53.4545 64.0909ZM55.6364 64.0909L56.621 64.2656L56.8294 63.0909H55.6364V64.0909ZM54.1875 68.233L53.3037 67.7651L53.3006 67.7709L54.1875 68.233ZM51.392 71.9148L52.081 72.6396L52.0812 72.6394L51.392 71.9148ZM47.3182 74.5227L47.6966 75.4484L47.6999 75.447L47.3182 74.5227ZM34.3636 73.2614L33.806 74.0914L33.8089 74.0934L34.3636 73.2614ZM29.1477 66.9886L28.2407 67.4096L28.2421 67.4128L29.1477 66.9886ZM29.1477 48.1023L28.2421 47.6781L28.2407 47.6813L29.1477 48.1023ZM34.3636 41.8466L34.9183 42.6786L34.9213 42.6767L34.3636 41.8466ZM47.3182 40.5852L46.934 41.5085L46.9422 41.5118L47.3182 40.5852ZM51.392 43.1761L50.7031 43.901L50.7105 43.9079L51.392 43.1761ZM54.1875 46.8239L53.3006 47.2859L53.3037 47.2917L54.1875 46.8239ZM55.6364 50H53.4545V52H55.6364V50ZM54.4366 50.8112C54.1877 49.5169 53.7219 48.2725 53.046 47.0806L51.3062 48.0671C51.8804 49.0797 52.2669 50.1195 52.4725 51.1888L54.4366 50.8112ZM53.0482 47.0844C52.3674 45.8713 51.4903 44.786 50.4232 43.8293L49.0881 45.3184C49.9984 46.1345 50.7349 47.0491 51.3041 48.0633L53.0482 47.0844ZM50.4322 43.8374C49.3618 42.8542 48.1217 42.0811 46.7208 41.5158L45.9724 43.3705C47.1624 43.8507 48.195 44.4981 49.0792 45.3103L50.4322 43.8374ZM46.7208 41.5158C45.2927 40.9396 43.7319 40.6591 42.0511 40.6591V42.6591C43.5068 42.6591 44.8096 42.9013 45.9724 43.3705L46.7208 41.5158ZM42.0511 40.6591C39.5664 40.6591 37.2666 41.3265 35.174 42.6559L36.2465 44.3441C38.0175 43.219 39.945 42.6591 42.0511 42.6591V40.6591ZM35.1753 42.6551C33.0755 43.9846 31.4204 45.9263 30.1931 48.429L31.9888 49.3096C33.0796 47.0851 34.504 45.4473 36.2452 44.3449L35.1753 42.6551ZM30.1914 48.4325C28.9607 50.9669 28.3693 54.0176 28.3693 57.5455H30.3693C30.3693 54.2324 30.9257 51.499 31.9905 49.3061L30.1914 48.4325ZM28.3693 57.5455C28.3693 61.0949 28.9603 64.1573 30.1914 66.6925L31.9905 65.8189C30.9261 63.6268 30.3693 60.8824 30.3693 57.5455H28.3693ZM30.1931 66.696C31.4204 69.1987 33.0755 71.1404 35.1753 72.4699L36.2452 70.7801C34.504 69.6777 33.0796 68.0399 31.9888 65.8154L30.1931 66.696ZM35.1811 72.4736C37.2731 73.7779 39.5703 74.4318 42.0511 74.4318V72.4318C39.9411 72.4318 38.011 71.8811 36.2393 70.7764L35.1811 72.4736ZM42.0511 74.4318C43.7293 74.4318 45.2876 74.1579 46.7138 73.5949L45.9794 71.7346C44.8147 72.1944 43.5094 72.4318 42.0511 72.4318V74.4318ZM46.7208 73.5921C48.1192 73.0279 49.3578 72.2621 50.4275 71.2919L49.0839 69.8104C48.1991 70.6129 47.1649 71.2562 45.9724 71.7374L46.7208 73.5921ZM50.4279 71.2915C51.4926 70.3247 52.3681 69.2352 53.0482 68.0235L51.3041 67.0447C50.7341 68.0602 49.9961 68.9821 49.0834 69.8108L50.4279 71.2915ZM53.0482 68.0235C53.7225 66.822 54.1878 65.5733 54.4366 64.2798L52.4725 63.9021C52.2668 64.9722 51.8798 66.0189 51.3041 67.0447L53.0482 68.0235ZM53.4545 65.0909H55.6364V63.0909H53.4545V65.0909ZM54.6517 63.9162C54.4211 65.2161 53.9743 66.4983 53.3037 67.7651L55.0713 68.7008C55.8325 67.263 56.3516 65.7839 56.621 64.2656L54.6517 63.9162ZM53.3006 67.7709C52.6495 69.0206 51.786 70.1601 50.7029 71.1901L52.0812 72.6394C53.3163 71.4649 54.3164 70.1498 55.0744 68.695L53.3006 67.7709ZM50.7031 71.19C49.6508 72.1901 48.399 72.9944 46.9364 73.5985L47.6999 75.447C49.3737 74.7556 50.8378 73.8212 52.081 72.6396L50.7031 71.19ZM46.9398 73.5971C45.5209 74.1771 43.8967 74.4773 42.0511 74.4773V76.4773C44.1147 76.4773 46.0018 76.1411 47.6966 75.4484L46.9398 73.5971ZM42.0511 74.4773C39.3204 74.4773 36.9548 73.787 34.9183 72.4293L33.8089 74.0934C36.2043 75.6903 38.9636 76.4773 42.0511 76.4773V74.4773ZM34.9213 72.4313C32.8728 71.0551 31.2467 69.1125 30.0533 66.5645L28.2421 67.4128C29.5715 70.2511 31.4227 72.4903 33.806 74.0914L34.9213 72.4313ZM30.0548 66.5676C28.8776 64.0314 28.2727 61.0327 28.2727 57.5455H26.2727C26.2727 61.2627 26.9178 64.5595 28.2407 67.4096L30.0548 66.5676ZM28.2727 57.5455C28.2727 54.0582 28.8776 51.0595 30.0548 48.5233L28.2407 47.6813C26.9178 50.5314 26.2727 53.8282 26.2727 57.5455H28.2727ZM30.0533 48.5264C31.2465 45.9789 32.8717 44.0431 34.9183 42.6786L33.8089 41.0145C31.4237 42.6047 29.5717 44.8393 28.2421 47.6781L30.0533 48.5264ZM34.9213 42.6767C36.9575 41.3088 39.322 40.6136 42.0511 40.6136V38.6136C38.962 38.6136 36.2016 39.4072 33.806 41.0165L34.9213 42.6767ZM42.0511 40.6136C43.8946 40.6136 45.5168 40.9188 46.934 41.5085L47.7023 39.662C46.006 38.9562 44.1168 38.6136 42.0511 38.6136V40.6136ZM46.9422 41.5118C48.4024 42.1044 49.6522 42.9021 50.7031 43.901L52.081 42.4513C50.8364 41.2684 49.3703 40.3388 47.6942 39.6586L46.9422 41.5118ZM50.7105 43.9079C51.7896 44.9129 52.6507 46.0385 53.3006 47.2859L55.0744 46.3618C54.3152 44.9047 53.3127 43.5984 52.0736 42.4444L50.7105 43.9079ZM53.3037 47.2917C53.9731 48.5562 54.4202 49.8489 54.6513 51.172L56.6215 50.828C56.3525 49.2875 55.8337 47.796 55.0713 46.356L53.3037 47.2917ZM63.8267 75H62.8267V76H63.8267V75ZM63.8267 40.0909V39.0909H62.8267V40.0909H63.8267ZM65.9574 40.0909H66.9574V39.0909H65.9574V40.0909ZM65.9574 56.5398H64.9574V57.5398H65.9574V56.5398ZM86.9915 56.5398V57.5398H87.9915V56.5398H86.9915ZM86.9915 40.0909V39.0909H85.9915V40.0909H86.9915ZM89.1222 40.0909H90.1222V39.0909H89.1222V40.0909ZM89.1222 75V76H90.1222V75H89.1222ZM86.9915 75H85.9915V76H86.9915V75ZM86.9915 58.517H87.9915V57.517H86.9915V58.517ZM65.9574 58.517V57.517H64.9574V58.517H65.9574ZM65.9574 75V76H66.9574V75H65.9574ZM64.8267 75V40.0909H62.8267V75H64.8267ZM63.8267 41.0909H65.9574V39.0909H63.8267V41.0909ZM64.9574 40.0909V56.5398H66.9574V40.0909H64.9574ZM65.9574 57.5398H86.9915V55.5398H65.9574V57.5398ZM87.9915 56.5398V40.0909H85.9915V56.5398H87.9915ZM86.9915 41.0909H89.1222V39.0909H86.9915V41.0909ZM88.1222 40.0909V75H90.1222V40.0909H88.1222ZM89.1222 74H86.9915V76H89.1222V74ZM87.9915 75V58.517H85.9915V75H87.9915ZM86.9915 57.517H65.9574V59.517H86.9915V57.517ZM64.9574 58.517V75H66.9574V58.517H64.9574ZM65.9574 74H63.8267V76H65.9574V74ZM97.8707 75V76H98.5754L98.8125 75.3364L97.8707 75ZM95.6207 75L94.6801 74.6606L94.1968 76H95.6207V75ZM108.217 40.0909V39.0909H107.515L107.277 39.7515L108.217 40.0909ZM110.672 40.0909L111.613 39.7515L111.374 39.0909H110.672V40.0909ZM123.268 75V76H124.692L124.209 74.6606L123.268 75ZM121.018 75L120.077 75.3364L120.314 76H121.018V75ZM109.53 42.8352L110.472 42.4989L110.235 41.8352H109.53V42.8352ZM109.359 42.8352V41.8352H108.655L108.418 42.4989L109.359 42.8352ZM101.058 61.858V60.858H100.058V61.858H101.058ZM117.831 61.858H118.831V60.858H117.831V61.858ZM117.831 63.8352V64.8352H118.831V63.8352H117.831ZM101.058 63.8352H100.058V64.8352H101.058V63.8352ZM97.8707 74H95.6207V76H97.8707V74ZM96.5614 75.3394L109.158 40.4303L107.277 39.7515L94.6801 74.6606L96.5614 75.3394ZM108.217 41.0909H110.672V39.0909H108.217V41.0909ZM109.731 40.4303L122.328 75.3394L124.209 74.6606L111.613 39.7515L109.731 40.4303ZM123.268 74H121.018V76H123.268V74ZM121.96 74.6636L110.472 42.4989L108.588 43.1716L120.077 75.3364L121.96 74.6636ZM109.53 41.8352H109.359V43.8352H109.53V41.8352ZM108.418 42.4989L96.929 74.6636L98.8125 75.3364L110.301 43.1716L108.418 42.4989ZM101.058 62.858H117.831V60.858H101.058V62.858ZM116.831 61.858V63.8352H118.831V61.858H116.831ZM117.831 62.8352H101.058V64.8352H117.831V62.8352ZM102.058 63.8352V61.858H100.058V63.8352H102.058ZM123.384 42.0682H122.384V43.0682H123.384V42.0682ZM123.384 40.0909V39.0909H122.384V40.0909H123.384ZM147.844 40.0909H148.844V39.0909H147.844V40.0909ZM147.844 42.0682V43.0682H148.844V42.0682H147.844ZM136.679 42.0682V41.0682H135.679V42.0682H136.679ZM136.679 75V76H137.679V75H136.679ZM134.548 75H133.548V76H134.548V75ZM134.548 42.0682H135.548V41.0682H134.548V42.0682ZM124.384 42.0682V40.0909H122.384V42.0682H124.384ZM123.384 41.0909H147.844V39.0909H123.384V41.0909ZM146.844 40.0909V42.0682H148.844V40.0909H146.844ZM147.844 41.0682H136.679V43.0682H147.844V41.0682ZM135.679 42.0682V75H137.679V42.0682H135.679ZM136.679 74H134.548V76H136.679V74ZM135.548 75V42.0682H133.548V75H135.548ZM134.548 41.0682H123.384V43.0682H134.548V41.0682Z" fill="white"/>
</g>
<defs>
<filter id="filter0_ddi_12_5" x="0" y="0" width="175" height="117" filterUnits="userSpaceOnUse" color-interpolation-filters="sRGB">
<feFlood flood-opacity="0" result="BackgroundImageFix"/>
<feColorMatrix in="SourceAlpha" type="matrix" values="0 0 0 0 0 0 0 0 0 0 0 0 0 0 0 0 0 0 127 0" result="hardAlpha"/>
<feMorphology radius="1" operator="dilate" in="SourceAlpha" result="effect1_dropShadow_12_5"/>
<feOffset/>
<feGaussianBlur stdDeviation="5"/>
<feComposite in2="hardAlpha" operator="out"/>
<feColorMatrix type="matrix" values="0 0 0 0 1 0 0 0 0 1 0 0 0 0 1 0 0 0 1 0"/>
<feBlend mode="normal" in2="BackgroundImageFix" result="effect1_dropShadow_12_5"/>
<feColorMatrix in="SourceAlpha" type="matrix" values="0 0 0 0 0 0 0 0 0 0 0 0 0 0 0 0 0 0 127 0" result="hardAlpha"/>
<feOffset dy="4"/>
<feGaussianBlur stdDeviation="2"/>
<feComposite in2="hardAlpha" operator="out"/>
<feColorMatrix type="matrix" values="0 0 0 0 0 0 0 0 0 0 0 0 0 0 0 0 0 0 0.25 0"/>
<feBlend mode="normal" in2="effect1_dropShadow_12_5" result="effect2_dropShadow_12_5"/>
<feBlend mode="normal" in="SourceGraphic" in2="effect2_dropShadow_12_5" result="shape"/>
<feColorMatrix in="SourceAlpha" type="matrix" values="0 0 0 0 0 0 0 0 0 0 0 0 0 0 0 0 0 0 127 0" result="hardAlpha"/>
<feMorphology radius="1" operator="erode" in="SourceAlpha" result="effect3_innerShadow_12_5"/>
<feOffset/>
<feGaussianBlur stdDeviation="3.5"/>
<feComposite in2="hardAlpha" operator="arithmetic" k2="-1" k3="1"/>
<feColorMatrix type="matrix" values="0 0 0 0 0.38 0 0 0 0 0 0 0 0 0 1 0 0 0 1 0"/>
<feBlend mode="normal" in2="shape" result="effect3_innerShadow_12_5"/>
</filter>
<filter id="filter1_d_12_5" x="23.2727" y="35.6136" width="128.571" height="43.8636" filterUnits="userSpaceOnUse" color-interpolation-filters="sRGB">
<feFlood flood-opacity="0" result="BackgroundImageFix"/>
<feColorMatrix in="SourceAlpha" type="matrix" values="0 0 0 0 0 0 0 0 0 0 0 0 0 0 0 0 0 0 127 0" result="hardAlpha"/>
<feOffset/>
<feGaussianBlur stdDeviation="2"/>
<feComposite in2="hardAlpha" operator="out"/>
<feColorMatrix type="matrix" values="0 0 0 0 1 0 0 0 0 1 0 0 0 0 1 0 0 0 1 0"/>
<feBlend mode="normal" in2="BackgroundImageFix" result="effect1_dropShadow_12_5"/>
<feBlend mode="normal" in="SourceGraphic" in2="effect1_dropShadow_12_5" result="shape"/>
</filter>
</defs>
</svg>
